<svg width="23" height="20" viewBox="0 0 75 75" fill="none" xmlns="http://www.w3.org/2000/svg">
<path fill-rule="evenodd" clip-rule="evenodd" d="M37.4999 5.35714C29.3636 5.35714 22.7678 11.9529 22.7678 20.0893C22.7678 28.2256 29.3636 34.8214 37.4999 34.8214C45.6363 34.8214 52.2321 28.2256 52.2321 20.0893C52.2321 11.9529 45.6363 5.35714 37.4999 5.35714ZM17.4106 20.0893C17.4106 8.99428 26.4049 0 37.4999 0C48.5949 0 57.5892 8.99428 57.5892 20.0893C57.5892 31.1843 48.5949 40.1786 37.4999 40.1786C26.4049 40.1786 17.4106 31.1843 17.4106 20.0893Z" fill="white"/>
<path fill-rule="evenodd" clip-rule="evenodd" d="M15.4315 52.6859C21.84 48.0111 29.5675 45.4921 37.5 45.4921C45.4324 45.4921 53.1599 48.0111 59.5685 52.6859C65.977 57.3608 70.7354 63.95 73.1577 71.5035C73.419 72.3183 73.2753 73.2088 72.7711 73.9001C72.2669 74.5913 71.4627 75.0001 70.6071 75.0001H4.39283C3.53721 75.0001 2.73308 74.5913 2.22884 73.9001C1.72459 73.2088 1.58092 72.3183 1.8422 71.5035C4.26452 63.95 9.02295 57.3608 15.4315 52.6859ZM37.5 50.8492C30.7024 50.8492 24.0803 53.0079 18.5886 57.0139C14.1111 60.2802 10.5736 64.6369 8.29463 69.6429H66.7053C64.4264 64.6369 60.8888 60.2802 56.4113 57.0139C50.9196 53.0079 44.2976 50.8492 37.5 50.8492Z" fill="white"/>
</svg>
