<svg width="123" height="20" viewBox="0 0 123 20" fill="none" preserveAspectRatio="none" xmlns="http://www.w3.org/2000/svg">
<path d="M15.296 17.392C15.072 17.616 14.736 17.832 14.288 18.04C13.856 18.248 13.368 18.44 12.824 18.616C12.28 18.792 11.72 18.928 11.144 19.024C10.568 19.136 10.024 19.192 9.512 19.192C8.104 19.192 6.832 18.976 5.696 18.544C4.576 18.112 3.616 17.52 2.816 16.768C2.016 16 1.4 15.096 0.968 14.056C0.536 13.016 0.32 11.888 0.32 10.672C0.32 9.152 0.56 7.816 1.04 6.664C1.52 5.496 2.176 4.52 3.008 3.736C3.84 2.936 4.792 2.336 5.864 1.936C6.952 1.536 8.096 1.336 9.296 1.336C10.352 1.336 11.328 1.456 12.224 1.696C13.136 1.936 13.912 2.24 14.552 2.608L13.64 5.2C13.336 5.024 12.944 4.856 12.464 4.696C11.984 4.52 11.496 4.384 11 4.288C10.504 4.192 10.056 4.144 9.656 4.144C8.648 4.144 7.744 4.288 6.944 4.576C6.16 4.848 5.488 5.256 4.928 5.8C4.368 6.344 3.936 7.008 3.632 7.792C3.344 8.56 3.2 9.44 3.2 10.432C3.2 11.328 3.352 12.144 3.656 12.88C3.976 13.616 4.416 14.248 4.976 14.776C5.536 15.304 6.208 15.712 6.992 16C7.776 16.272 8.64 16.408 9.584 16.408C10.128 16.408 10.656 16.36 11.168 16.264C11.68 16.168 12.12 16.016 12.488 15.808V12.904H9.2V10.216H15.296V17.392ZM24.4606 1.528C25.4206 1.528 26.3006 1.656 27.1006 1.912C27.9006 2.152 28.5806 2.512 29.1406 2.992C29.7006 3.472 30.1326 4.064 30.4366 4.768C30.7566 5.456 30.9166 6.248 30.9166 7.144C30.9166 7.832 30.8126 8.52 30.6046 9.208C30.3966 9.896 30.0526 10.52 29.5726 11.08C29.1086 11.624 28.4926 12.072 27.7246 12.424C26.9566 12.76 26.0046 12.928 24.8686 12.928H22.3486V19H19.5406V1.528H24.4606ZM24.8446 10.24C25.4686 10.24 25.9886 10.144 26.4046 9.952C26.8206 9.744 27.1406 9.488 27.3646 9.184C27.6046 8.88 27.7726 8.56 27.8686 8.224C27.9806 7.872 28.0366 7.544 28.0366 7.24C28.0366 6.952 27.9886 6.64 27.8926 6.304C27.7966 5.952 27.6286 5.624 27.3886 5.32C27.1646 5 26.8526 4.736 26.4526 4.528C26.0526 4.32 25.5486 4.216 24.9406 4.216H22.3486V10.24H24.8446ZM27.8686 11.896L32.3326 19H29.0926L24.5326 11.968L27.8686 11.896ZM34.07 10.288C34.07 9.072 34.302 7.928 34.766 6.856C35.23 5.784 35.87 4.832 36.686 4C37.502 3.168 38.446 2.52 39.518 2.056C40.606 1.576 41.766 1.336 42.998 1.336C44.214 1.336 45.358 1.576 46.43 2.056C47.518 2.52 48.47 3.168 49.286 4C50.118 4.832 50.766 5.784 51.23 6.856C51.71 7.928 51.95 9.072 51.95 10.288C51.95 11.52 51.71 12.68 51.23 13.768C50.766 14.84 50.118 15.784 49.286 16.6C48.47 17.416 47.518 18.056 46.43 18.52C45.358 18.968 44.214 19.192 42.998 19.192C41.75 19.192 40.59 18.968 39.518 18.52C38.446 18.056 37.502 17.424 36.686 16.624C35.87 15.808 35.23 14.864 34.766 13.792C34.302 12.704 34.07 11.536 34.07 10.288ZM36.95 10.288C36.95 11.152 37.102 11.96 37.406 12.712C37.726 13.464 38.166 14.128 38.726 14.704C39.286 15.264 39.934 15.704 40.67 16.024C41.406 16.344 42.206 16.504 43.07 16.504C43.902 16.504 44.678 16.344 45.398 16.024C46.134 15.704 46.774 15.264 47.318 14.704C47.862 14.128 48.286 13.464 48.59 12.712C48.91 11.96 49.07 11.152 49.07 10.288C49.07 9.408 48.91 8.592 48.59 7.84C48.27 7.088 47.838 6.424 47.294 5.848C46.75 5.272 46.11 4.824 45.374 4.504C44.638 4.184 43.846 4.024 42.998 4.024C42.15 4.024 41.358 4.184 40.622 4.504C39.886 4.824 39.238 5.272 38.678 5.848C38.134 6.424 37.71 7.096 37.406 7.864C37.102 8.616 36.95 9.424 36.95 10.288ZM58.2013 12.712C58.2013 13.4 58.3773 14.032 58.7293 14.608C59.0973 15.184 59.5773 15.64 60.1693 15.976C60.7613 16.312 61.4253 16.48 62.1613 16.48C62.9293 16.48 63.6173 16.312 64.2253 15.976C64.8333 15.64 65.3133 15.184 65.6653 14.608C66.0173 14.032 66.1933 13.4 66.1933 12.712V1.528H68.9533V12.784C68.9533 14.048 68.6493 15.168 68.0413 16.144C67.4333 17.104 66.6173 17.856 65.5933 18.4C64.5693 18.928 63.4253 19.192 62.1613 19.192C60.9133 19.192 59.7773 18.928 58.7533 18.4C57.7293 17.856 56.9133 17.104 56.3053 16.144C55.7133 15.168 55.4173 14.048 55.4173 12.784V1.528H58.2013V12.712ZM88.8303 19.624L75.4143 6.616L76.2303 6.952L76.3023 19H73.4703V0.927999H73.6143L86.8143 13.936L86.1663 13.744L86.1183 1.528H88.9023V19.624H88.8303ZM93.7203 19V1.528H98.6883C100.416 1.528 101.888 1.792 103.104 2.32C104.336 2.848 105.328 3.544 106.08 4.408C106.832 5.272 107.376 6.24 107.712 7.312C108.064 8.368 108.24 9.432 108.24 10.504C108.24 11.816 108.008 12.992 107.544 14.032C107.08 15.072 106.44 15.968 105.624 16.72C104.824 17.456 103.896 18.024 102.84 18.424C101.8 18.808 100.696 19 99.5283 19H93.7203ZM96.5283 16.312H99.0243C99.9523 16.312 100.8 16.184 101.568 15.928C102.336 15.656 103 15.272 103.56 14.776C104.136 14.264 104.576 13.632 104.88 12.88C105.2 12.128 105.36 11.272 105.36 10.312C105.36 9.224 105.176 8.296 104.808 7.528C104.456 6.744 103.984 6.112 103.392 5.632C102.816 5.136 102.184 4.776 101.496 4.552C100.808 4.312 100.128 4.192 99.4563 4.192H96.5283V16.312ZM121.123 5.08C120.499 4.76 119.835 4.488 119.131 4.264C118.427 4.024 117.755 3.904 117.115 3.904C116.251 3.904 115.563 4.096 115.051 4.48C114.555 4.864 114.307 5.392 114.307 6.064C114.307 6.544 114.475 6.968 114.811 7.336C115.163 7.688 115.611 8 116.155 8.272C116.715 8.528 117.299 8.776 117.907 9.016C118.435 9.208 118.955 9.44 119.467 9.712C119.995 9.968 120.467 10.288 120.883 10.672C121.299 11.056 121.627 11.536 121.867 12.112C122.107 12.672 122.227 13.368 122.227 14.2C122.227 15.112 121.995 15.952 121.531 16.72C121.083 17.472 120.427 18.072 119.563 18.52C118.699 18.968 117.651 19.192 116.419 19.192C115.683 19.192 114.963 19.112 114.259 18.952C113.571 18.792 112.915 18.576 112.291 18.304C111.667 18.016 111.091 17.696 110.563 17.344L111.811 15.16C112.195 15.448 112.635 15.712 113.131 15.952C113.627 16.192 114.139 16.384 114.667 16.528C115.195 16.672 115.691 16.744 116.155 16.744C116.651 16.744 117.139 16.664 117.619 16.504C118.115 16.328 118.523 16.056 118.843 15.688C119.179 15.32 119.347 14.832 119.347 14.224C119.347 13.728 119.203 13.304 118.915 12.952C118.643 12.6 118.275 12.296 117.811 12.04C117.347 11.768 116.843 11.528 116.299 11.32C115.755 11.112 115.203 10.88 114.643 10.624C114.083 10.368 113.555 10.056 113.059 9.688C112.579 9.304 112.187 8.84 111.883 8.296C111.579 7.752 111.427 7.08 111.427 6.28C111.427 5.32 111.651 4.488 112.099 3.784C112.547 3.08 113.163 2.52 113.947 2.104C114.747 1.688 115.667 1.464 116.707 1.432C117.939 1.432 118.987 1.584 119.851 1.888C120.731 2.176 121.507 2.528 122.179 2.944L121.123 5.08Z" fill="white"/>
</svg>
